<?xml version="1.0" encoding="utf-8"?>
<!-- Generator: Adobe Illustrator 21.0.2, SVG Export Plug-In . SVG Version: 6.00 Build 0)  -->
<svg version="1.1" xmlns="http://www.w3.org/2000/svg" xmlns:xlink="http://www.w3.org/1999/xlink" x="0px" y="0px" width="20px"
	 height="14px" viewBox="0 0 20 14" style="enable-background:new 0 0 20 14;" xml:space="preserve">
<style type="text/css">
	.st0{fill:none;stroke:#FFFFFF;stroke-width:2;stroke-miterlimit:10;}
	.st1{display:none;}
	.st2{display:inline;fill:none;stroke:#000000;stroke-width:2;stroke-miterlimit:10;}
	.st3{display:inline;}
	.st4{fill:none;stroke:#000000;stroke-width:2;stroke-miterlimit:10;}
	.st5{display:inline;fill:none;stroke:#000000;stroke-width:1.9149;stroke-linejoin:round;stroke-miterlimit:10;}
	.st6{display:inline;fill:none;stroke:#727272;stroke-width:2;stroke-miterlimit:10;}
	.st7{fill:none;stroke:#727272;stroke-width:2;stroke-miterlimit:10;}
	.st8{display:inline;fill:#FFFFFF;}
	.st9{display:inline;fill:none;stroke:#CCCCCC;stroke-width:1.8182;stroke-miterlimit:10;}
	.st10{display:inline;fill:#CCCCCC;}
	.st11{display:inline;fill:none;stroke:#CCCCCC;stroke-width:2;stroke-miterlimit:10;}
	.st12{display:inline;fill:none;stroke:#FFFFFF;stroke-width:2;stroke-linecap:round;stroke-miterlimit:10;}
</style>
<g id="External_Link_copy">
	<polyline class="st0" points="10,1 1,1 1,13 19,13 19,10 	"/>
	<g>
		<polyline class="st0" points="19,6 19,1 14,1 		"/>
		<line class="st0" x1="19" y1="1" x2="13.2" y2="6.8"/>
		<polyline class="st0" points="19,6 19,1 14,1 		"/>
		<line class="st0" x1="19" y1="1" x2="13.2" y2="6.8"/>
	</g>
</g>
<g id="Download_Icon" class="st1">
	<polyline class="st2" points="1,9 1,15 19,15 19,9 	"/>
	<polyline class="st2" points="6.5,6.6 10,10.1 13.5,6.6 	"/>
	<line class="st2" x1="10" y1="10.1" x2="10" y2="2"/>
	<polyline class="st2" points="6.5,6.6 10,10.1 13.5,6.6 	"/>
	<line class="st2" x1="10" y1="10.1" x2="10" y2="2"/>
</g>
<g id="External_Link_copy_2" class="st1">
	<rect x="1" y="3" class="st2" width="18" height="12"/>
	<polygon class="st3" points="13.9,8.6 8,12.4 8,5.5 	"/>
</g>
<g id="Chevron" class="st1">
	<polyline class="st2" points="7,4 12,9 7,14 	"/>
</g>
<g id="Expand" class="st1">
	<line class="st2" x1="10" y1="3" x2="10" y2="15"/>
	<line class="st2" x1="4" y1="9" x2="16" y2="9"/>
</g>
<g id="Expand_copy" class="st1">
	<g class="st3">
		<line class="st4" x1="5.8" y1="4.8" x2="14.2" y2="13.2"/>
		<line class="st4" x1="5.8" y1="13.2" x2="14.2" y2="4.8"/>
	</g>
</g>
<g id="Chevron_1_" class="st1">
	<g class="st3">
		<polyline class="st4" points="5.8,13.2 10,9 14.2,13.2 		"/>
	</g>
</g>
<g id="Layer_7" class="st1">
	<path class="st5" d="M17.9,15H15l0,4l-4.6-4H2.1C1.5,15,1,14.5,1,13.9V5.1C1,4.5,1.5,4,2.1,4h15.8C18.5,4,19,4.5,19,5.1v8.8
		C19,14.5,18.5,15,17.9,15z"/>
</g>
<g id="Jump_Icon" class="st1">
	<line class="st6" x1="3" y1="7" x2="17" y2="7"/>
	<g class="st3">
		<polyline class="st7" points="6.5,11.6 10,15.1 13.5,11.6 		"/>
		<line class="st7" x1="10" y1="15.1" x2="10" y2="7"/>
		<polyline class="st7" points="6.5,11.6 10,15.1 13.5,11.6 		"/>
		<line class="st7" x1="10" y1="15.1" x2="10" y2="7"/>
	</g>
</g>
<g id="Jump_Icon_copy" class="st1">
	<g class="st3">
		<polyline class="st7" points="6.5,11.6 10,15.1 13.5,11.6 		"/>
		<line class="st7" x1="10" y1="15.1" x2="10" y2="7"/>
		<polyline class="st7" points="6.5,11.6 10,15.1 13.5,11.6 		"/>
		<line class="st7" x1="10" y1="15.1" x2="10" y2="7"/>
	</g>
	<rect x="8" y="9" class="st8" width="4" height="2"/>
</g>
<g id="Care_Management_-_For_HCPs" class="st1">
	<path class="st9" d="M4,3C2.8,3.9,2,5.4,2,7c0,2.8,2.2,5,5,5s5-2.2,5-5c0-1.6-0.8-3.1-2-4"/>
	<path class="st9" d="M16,12.5c0,2.5-2,4.5-4.5,4.5S7,15,7,12.5"/>
	<circle class="st10" cx="4" cy="3" r="2"/>
	<circle class="st10" cx="10" cy="3" r="2"/>
	<circle class="st11" cx="16" cy="11.5" r="2"/>
</g>
<g id="Care_Management_-_For_Patients" class="st1">
	<path class="st12" d="M9.3,11.8c0.7-0.7,1.2-1.8,1.2-3.1c0-0.3,0-0.5-0.1-0.8C10.2,6.3,9,5,7.5,5C6,5,4.8,6.3,4.5,8
		c0,0.2-0.1,0.5-0.1,0.8c0,1.3,0.5,2.4,1.2,3.1c0,0,0.5,0.9-1.2,0.9C1,12.7,1,14.4,1,15.3v1C1,16.7,1.3,17,1.7,17h11.6
		c0.4,0,0.7-0.3,0.7-0.7v-1c0-0.9,0-2.6-3.5-2.6C8.8,12.7,9.3,11.8,9.3,11.8z"/>
	<path class="st12" d="M11,3.2c0.4-0.3,0.9-0.5,1.5-0.5c1.5,0,2.7,1.3,3,3.1c0,0.2,0.1,0.5,0.1,0.8c0,1.3-0.5,2.4-1.2,3.1
		c0,0-0.5,0.9,1.2,0.9c3.5,0,3.5,1.7,3.5,2.6v1c0,0.4-0.3,0.7-0.7,0.7h-1.6"/>
</g>
<g id="Modal" class="st1">
	<g class="st3">
		<polyline class="st4" points="3,12 3,17 8,17 		"/>
		<line class="st4" x1="3" y1="17" x2="8.8" y2="11.2"/>
	</g>
	<polyline class="st2" points="17,8 17,3 12,3 	"/>
	<line class="st2" x1="17" y1="3" x2="11.2" y2="8.8"/>
</g>
</svg>
